<?xml version="1.0" standalone="no"?>
<!DOCTYPE svg PUBLIC "-//W3C//DTD SVG 20010904//EN"
 "http://www.w3.org/TR/2001/REC-SVG-20010904/DTD/svg10.dtd">
<svg version="1.0" xmlns="http://www.w3.org/2000/svg"
 width="85.000000pt" height="81.000000pt" viewBox="0 0 85.000000 81.000000"
 preserveAspectRatio="xMidYMid meet">
<metadata>
Created by potrace 1.16, written by Peter Selinger 2001-2019
</metadata>
<g transform="translate(0.000000,81.000000) scale(0.100000,-0.100000)"
fill="#000000" stroke="none">
<path d="M324 781 c-87 -50 -142 -135 -132 -204 2 -12 -4 -30 -12 -39 -47 -57
-64 -172 -30 -203 11 -10 22 -26 25 -36 4 -11 14 -23 24 -28 14 -8 12 2 -11
46 -34 67 -34 70 -7 144 20 55 22 57 39 41 9 -9 25 -39 34 -67 21 -65 52 -115
71 -115 19 0 19 14 1 30 -15 12 -41 78 -34 85 2 2 26 -7 53 -20 28 -14 67 -28
88 -31 43 -8 57 -21 30 -30 -54 -18 -143 -64 -143 -74 0 -6 12 -3 28 8 23 17
120 52 144 52 4 0 8 -8 8 -17 0 -11 7 -3 18 17 15 32 23 36 91 52 40 9 75 19
78 22 3 3 12 -1 20 -9 11 -11 18 -12 33 -3 14 9 24 8 47 -6 l28 -17 -23 20
c-12 11 -28 21 -35 24 -9 3 -5 20 12 63 32 75 41 164 17 164 -12 0 -16 -10
-16 -47 0 -27 -7 -57 -15 -67 -14 -19 -15 -19 -15 7 0 47 -27 94 -72 128 -24
17 -35 29 -25 26 10 -4 16 -3 12 3 -9 15 -105 40 -155 40 -70 0 -146 -27 -191
-67 -47 -42 -61 -36 -34 15 24 43 74 79 132 95 23 6 40 14 37 19 -11 17 -71 6
-120 -21z m51 -242 c65 -23 165 -29 268 -15 53 7 58 6 55 -10 -4 -24 -60 -61
-112 -75 -96 -26 -244 18 -285 85 -35 55 -36 55 74 15z"/>
<path d="M800 507 c0 -12 9 -39 20 -60 21 -39 26 -77 10 -77 -5 0 -7 -6 -5
-12 12 -34 -54 -62 -110 -47 -37 11 -49 39 -15 39 13 0 18 5 14 15 -10 25 -42
17 -71 -20 -20 -24 -41 -38 -75 -47 -26 -6 -48 -18 -48 -25 0 -15 47 -8 105
16 35 15 46 16 85 4 53 -16 93 -9 120 20 38 40 21 217 -21 217 -5 0 -9 -10 -9
-23z"/>
</g>
</svg>
